<?xml version="1.0" encoding="UTF-8" standalone="no"?>
<svg
   xmlns:dc="http://purl.org/dc/elements/1.1/"
   xmlns:cc="http://creativecommons.org/ns#"
   xmlns:rdf="http://www.w3.org/1999/02/22-rdf-syntax-ns#"
   xmlns:svg="http://www.w3.org/2000/svg"
   xmlns="http://www.w3.org/2000/svg"
   xmlns:sodipodi="http://sodipodi.sourceforge.net/DTD/sodipodi-0.dtd"
   xmlns:inkscape="http://www.inkscape.org/namespaces/inkscape"
   version="1.0"
   width="2000.000000pt"
   height="1404.000000pt"
   viewBox="0 0 2000.000000 1404.000000"
   preserveAspectRatio="xMidYMid meet"
   id="svg14"
   sodipodi:docname="logo.svg"
   inkscape:version="0.92.4 (5da689c313, 2019-01-14)">
  <metadata
     id="metadata20">
    <rdf:RDF>
      <cc:Work
         rdf:about="">
        <dc:format>image/svg+xml</dc:format>
        <dc:type
           rdf:resource="http://purl.org/dc/dcmitype/StillImage" />
      </cc:Work>
    </rdf:RDF>
  </metadata>
  <defs
     id="defs18" />
  <sodipodi:namedview
     pagecolor="#ffffff"
     bordercolor="#666666"
     borderopacity="1"
     objecttolerance="10"
     gridtolerance="10"
     guidetolerance="10"
     inkscape:pageopacity="0"
     inkscape:pageshadow="2"
     inkscape:window-width="1366"
     inkscape:window-height="705"
     id="namedview16"
     showgrid="false"
     inkscape:zoom="0.213"
     inkscape:cx="1640.6461"
     inkscape:cy="1154.9217"
     inkscape:window-x="-8"
     inkscape:window-y="-8"
     inkscape:window-maximized="1"
     inkscape:current-layer="svg14" />
  <g
     transform="translate(0.000000,1404.000000) scale(0.100000,-0.100000)"
     id="g12"
     stroke="none"
     fill="#000000">
    <path
       d="M12325 14033 c-1388 -54 -2688 -365 -3975 -950 -201 -91 -780 -385 -1063 -540 -1668 -911 -3144 -2201 -4167 -3643 -181 -256 -237 -343 -222 -348 32 -10 99 -71 124 -112 15 -25 343 -889 728 -1920 474 -1268 719 -1914 760 -1995 141 -283 324 -448 562 -505 46 -11 118 -20 161 -20 67 0 77 2 77 18 0 42 -31 215 -54 304 -14 53 -344 946 -733 1985 l-707 1888 0 80 c-1 65 4 88 23 125 24 48 849 884 906 920 17 10 395 154 840 320 446 165 826 311 845 324 19 12 386 152 815 310 715 264 785 288 845 289 46 0 78 -5 110 -20 25 -11 369 -233 764 -492 396 -259 721 -469 723 -467 2 2 -58 167 -133 367 -128 338 -138 369 -138 434 -1 119 1 121 455 583 223 228 424 424 445 437 67 40 1774 676 1830 682 109 12 235 -61 288 -166 13 -25 63 -153 111 -283 49 -131 91 -238 95 -238 4 0 42 46 85 101 244 319 626 707 975 990 249 203 562 422 760 531 219 121 648 287 924 358 66 17 180 42 255 55 74 14 136 27 138 29 12 12 -516 186 -812 267 -830 227 -1781 336 -2640 302z"
       id="path2"
       style="fill:#ee161f;fill-opacity:1" />
    <path
       d="M16135 13194 c-404 -24 -750 -102 -1135 -256 -230 -91 -419 -193 -645 -346 -706 -477 -1354 -1153 -1715 -1785 -30 -53 -57 -97 -60 -97 -3 0 -95 240 -204 533 -110 292 -202 536 -206 540 -4 4 -382 -132 -841 -304 l-834 -312 -228 -226 c-126 -124 -304 -305 -397 -402 l-169 -175 284 -759 c157 -417 283 -761 281 -763 -2 -2 -165 102 -362 231 -198 129 -687 448 -1087 710 l-728 476 -82 -30 c-45 -17 -388 -142 -762 -279 -374 -137 -1051 -388 -1505 -558 l-825 -309 -395 -397 c-217 -218 -394 -403 -392 -410 1 -7 317 -856 703 -1887 385 -1031 711 -1915 725 -1964 32 -122 54 -279 54 -398 0 -114 -19 -168 -80 -220 -69 -58 -125 -72 -290 -71 -121 2 -161 6 -244 28 -309 81 -560 305 -737 659 -65 128 3 -49 -775 2031 -376 1006 -686 1831 -688 1833 -2 2 -386 -138 -852 -312 l-849 -316 -213 -212 c-117 -117 -294 -296 -393 -398 l-179 -187 629 -1688 c346 -929 657 -1763 691 -1854 250 -670 539 -1144 931 -1525 145 -140 269 -241 408 -330 240 -153 528 -269 801 -324 837 -166 1900 102 2662 672 193 144 315 258 794 739 400 403 529 545 631 699 26 38 47 68 48 67 1 -2 75 -200 165 -440 l163 -437 66 25 c36 14 419 158 850 322 l785 297 388 384 c213 211 388 388 388 394 0 8 -471 1294 -596 1625 -14 36 -18 60 -11 55 7 -4 529 -351 1161 -771 l1150 -763 700 255 701 256 394 394 395 395 -46 123 c-25 68 -45 124 -44 125 1 1 61 -18 133 -42 665 -225 1372 -228 2073 -10 240 75 622 249 854 389 415 251 807 609 1167 1063 326 410 618 906 759 1285 91 247 161 538 197 823 24 197 24 634 0 835 -49 393 -144 753 -294 1105 -484 1140 -1460 1949 -2585 2144 -198 34 -513 55 -683 45z m370 -234 c621 -53 1174 -278 1680 -683 137 -110 391 -367 507 -512 427 -538 693 -1167 783 -1855 23 -174 31 -521 16 -705 -60 -744 -353 -1412 -843 -1921 -476 -494 -1124 -818 -1826 -914 -235 -32 -571 -30 -810 5 -529 78 -1046 308 -1487 661 -147 118 -387 360 -512 516 -326 407 -564 882 -693 1384 -247 955 -103 1927 397 2682 159 241 386 489 603 662 609 484 1441 743 2185 680z m-3332 -4486 c626 -1665 1136 -3028 1133 -3031 -2 -3 -247 -94 -542 -203 l-538 -197 -110 72 c-61 39 -1006 667 -2101 1394 -1094 728 -1998 1327 -2007 1332 -17 9 -17 7 1 -38 104 -269 1423 -3804 1420 -3807 -8 -6 -1282 -476 -1284 -474 -9 9 -2254 6052 -2250 6056 4 4 1097 412 1143 426 15 5 512 -315 2058 -1328 1121 -735 2039 -1334 2041 -1332 2 1 -306 830 -683 1840 -377 1011 -684 1839 -682 1840 4 4 1251 475 1258 476 3 0 517 -1362 1143 -3026z m-6048 -821 c362 -967 677 -1819 702 -1893 85 -264 148 -547 178 -805 17 -151 20 -472 4 -613 -100 -921 -715 -1610 -1799 -2013 -396 -147 -710 -213 -1075 -226 -550 -19 -1045 141 -1469 475 -103 81 -341 322 -425 432 -197 255 -368 550 -504 867 -94 220 -1359 3625 -1350 3633 15 15 1263 477 1268 470 2 -4 293 -778 646 -1721 352 -943 656 -1752 676 -1799 129 -316 336 -589 565 -747 216 -150 428 -213 713 -213 169 0 280 18 436 70 497 165 826 532 905 1009 13 82 15 140 11 275 -6 192 -32 339 -91 518 -19 56 -325 881 -681 1831 -356 951 -645 1730 -643 1731 5 4 1262 475 1269 475 3 1 302 -790 664 -1756z"
       id="path4" />
    <path
       d="M16070 11659 c-267 -30 -573 -143 -805 -296 -132 -88 -328 -282 -414 -412 -150 -227 -240 -489 -271 -790 -65 -645 211 -1423 674 -1900 274 -281 565 -442 919 -507 113 -21 377 -24 492 -5 537 86 977 373 1224 799 306 526 293 1273 -33 1947 -133 276 -270 471 -465 665 -135 135 -225 206 -365 290 -283 170 -631 246 -956 209z m-315 -1039 c393 -90 689 -311 951 -710 182 -278 302 -589 365 -945 32 -179 32 -434 1 -546 -39 -145 -105 -247 -211 -327 -200 -151 -553 -162 -925 -28 -348 125 -680 462 -895 907 -163 338 -229 601 -238 952 -6 228 2 288 53 393 81 165 225 273 429 320 88 20 352 12 470 -16z"
       id="path6" />
    <path
       d="M15347 10349 c-96 -23 -179 -89 -230 -183 -26 -46 -27 -55 -27 -199 0 -430 147 -859 419 -1221 132 -175 326 -332 487 -393 162 -62 245 -78 409 -78 167 1 224 15 297 75 85 70 121 223 100 429 -29 288 -92 529 -196 743 -226 468 -529 740 -911 819 -96 20 -279 24 -348 8z"
       id="path8" />
    <path
       d="M16820 5234 c-150 -51 -410 -116 -575 -143 -225 -38 -336 -46 -605 -45 -286 1 -413 12 -663 61 l-138 27 -432 -431 c-238 -237 -442 -436 -454 -442 -11 -6 -347 -130 -745 -277 -764 -281 -790 -289 -878 -261 -27 8 -358 222 -842 545 -439 293 -798 528 -798 524 0 -8 249 -666 305 -809 32 -78 33 -169 4 -233 -15 -34 -125 -150 -442 -468 -232 -232 -438 -433 -457 -446 -19 -13 -431 -171 -915 -351 -823 -306 -884 -328 -945 -328 -103 0 -187 45 -240 130 -15 24 -61 132 -101 240 l-73 196 -171 -176 c-300 -310 -835 -819 -957 -910 -581 -436 -1244 -707 -1975 -808 -126 -18 -209 -23 -408 -23 -137 -1 -290 3 -340 7 -59 6 -87 5 -80 -2 6 -5 93 -52 195 -104 544 -280 1138 -473 1805 -586 635 -108 1423 -130 2151 -61 1408 135 2889 583 4354 1316 1609 806 3092 2028 4271 3519 95 120 269 349 283 373 9 15 13 16 -134 -34z"
       id="path10"
       style="fill:#ee161f;fill-opacity:1" />
  </g>
  <path
     style="fill:#f8db22;stroke-width:2.34741783;fill-opacity:1"
     d="M 649.03585,1589.1848 C 520.78599,1580.8116 419.55684,1491.2699 356.86196,1330.7442 321.98719,1241.4498 189.5742,882.99551 188.75251,875.6562 c -0.52397,-4.68005 2.11935,-6.32841 22.88177,-14.26897 77.74894,-29.73497 140.1505,-51.6652 141.77059,-49.82346 1.01951,1.15899 40.16289,104.57205 86.98528,229.80683 46.82239,125.2347 89.64026,237.336 95.15084,249.1141 37.48604,80.1206 96.98169,119.2397 175.21392,115.2054 79.56266,-4.103 147.92252,-57.4397 166.44632,-129.867 5.64976,-22.0905 6.11927,-57.4046 1.1426,-85.9429 -4.15317,-23.8161 -3.23537,-21.2298 -92.27356,-260.01199 -92.81322,-248.90603 -92.16524,-247.13774 -90.99348,-248.3095 2.02268,-2.02267 156.50491,-59.29725 161.37249,-59.82916 6.15368,-0.67245 -1.69371,-20.20022 87.50991,217.76308 105.19311,280.61747 104.29611,278.05937 115.49091,329.35207 7.9483,36.4177 10.3323,109.6618 4.6374,142.4789 -19.2435,110.8925 -98.51597,195.7062 -230.38749,246.4922 -66.05766,25.4399 -124.2,35.3166 -184.66416,31.369 z"
     id="path3725"
     inkscape:connector-curvature="0"
     transform="scale(0.74999999)" />
  <path
     style="fill:#f8db22;stroke-width:2.34741783;fill-opacity:1"
     d="M 1170.8478,1269.2994 C 1120.4762,1134.5812 978.57231,752.50833 941.65592,652.20537 c -11.30187,-30.70751 -20.14502,-56.21072 -19.65144,-56.6738 1.03923,-0.97502 113.14642,-42.8658 135.96942,-50.80735 l 15.3537,-5.3425 39.8106,25.47163 c 21.8959,14.00939 136.9937,89.01015 255.7731,166.66836 243.4789,159.18704 247.4677,161.7551 248.9495,160.27334 0.5914,-0.59141 -33.8784,-94.99578 -76.5996,-209.78745 -88.0665,-236.63458 -103.4145,-278.43623 -102.5433,-279.28638 0.607,-0.59233 68.2996,-26.44161 131.6609,-50.27639 17.8494,-6.71445 32.7563,-11.84735 33.1265,-11.40644 4.5611,5.43209 302.1644,803.00051 300.2748,804.72791 -2.2672,2.0725 -136.0978,51.7075 -139.4188,51.7075 -1.8377,0 -157.5608,-102.8739 -485.8256,-320.9465 -43.2512,-28.73258 -78.9156,-51.42129 -79.2544,-50.41934 -0.3387,1.00194 20.9271,59.35295 47.2573,129.66892 26.3303,70.31592 68.5134,183.30492 93.7403,251.08662 25.2269,67.7817 46.5861,125.0734 47.4649,127.3148 1.1935,3.0442 -0.096,4.7372 -5.0962,6.6911 -3.6818,1.4387 -41.7644,15.553 -84.6282,31.3652 l -77.9341,28.7495 z"
     id="path3727"
     inkscape:connector-curvature="0"
     transform="scale(0.74999999)" />
  <path
     style="fill:#f8db22;stroke-width:2.34741783;fill-opacity:1"
     d="m 2142.3855,1022.2142 c -19.8316,-2.5475 -64.026,-13.6399 -84.5071,-21.2106 -54.8045,-20.25801 -103.928,-51.37301 -147.514,-93.43586 -42.3051,-40.82666 -69.3695,-77.17967 -95.2456,-127.93427 -37.7968,-74.13657 -54.8825,-151.13401 -52.3451,-235.89561 2.0652,-68.98533 15.0482,-122.15225 43.7861,-179.30924 76.6657,-152.48045 255.1972,-242.88144 425.2093,-215.30846 136.4955,22.13718 253.7876,114.49031 319.2945,251.40533 34.6861,72.49693 48.2043,137.58052 46.0501,221.70894 -1.0128,39.54989 -2.3204,53.34993 -7.2561,76.57627 -34.7628,163.58505 -153.9723,282.23404 -319.5379,318.0353 -18.8613,4.0785 -32.9306,5.2084 -71.5962,5.7498 -26.4672,0.3706 -51.8193,0.1988 -56.338,-0.3816 z m 101.398,-187.17627 c 84.5721,-21.45347 142.4413,-76.25911 163.9174,-155.23986 7.3492,-27.02774 9.0317,-81.11706 3.5488,-114.08746 -7.7633,-46.68317 -28.1,-98.06479 -54.5715,-137.8773 -15.6095,-23.47627 -51.9021,-60.98301 -72.274,-74.69178 -29.5122,-19.85958 -58.4648,-30.96667 -93.67,-35.93465 -70.0856,-9.89014 -154.9252,24.0646 -201.0371,80.45964 -14.655,17.92313 -33.1514,55.16766 -39.8903,80.32376 -6.3537,23.7177 -8.8956,81.96601 -4.7464,108.76277 16.3472,105.57554 78.3493,197.79582 158.1142,235.17491 29.4657,13.80812 50.974,18.36622 87.6188,18.56842 25.1644,0.13874 34.8634,-0.86023 52.9901,-5.45845 z"
     id="path3729"
     inkscape:connector-curvature="0"
     transform="scale(0.74999999)" />
  <path
     style="opacity:0;fill:#ff0000;fill-opacity:0;stroke-width:2.34741783"
     d="m 681.40052,1335.6726 c -27.58781,-4.5822 -58.73868,-29.4996 -74.53855,-59.623 -9.68976,-18.4742 -12.02952,-24.5246 -103.00661,-266.3692 C 397.28344,726.38012 405.44899,746.91469 395.75615,737.83462 l -8.28506,-7.76129 5.04747,-8.16697 c 11.45649,-18.537 49.14387,-69.98237 73.83639,-100.79082 84.70925,-105.69031 188.81564,-205.34073 303.96478,-290.95449 94.48971,-70.2534 219.32619,-143.68041 336.35697,-197.84026 245.852,-113.776188 517.4169,-155.353661 762.2346,-116.700613 69.9229,11.039785 160.6646,34.166008 217.5059,55.433079 l 13.6313,5.100101 -29.301,6.448666 c -45.7822,10.075899 -109.766,33.376757 -143.1508,52.130947 -72.8264,40.91085 -160.5857,116.30121 -221.2753,190.0883 -10.3536,12.58802 -19.5544,22.88732 -20.4463,22.88732 -0.8918,0 -7.2842,-15.05282 -14.2051,-33.45071 -14.3306,-38.09457 -22.1983,-48.65119 -39.7893,-53.38798 -9.8343,-2.64807 -11.9895,-2.19298 -44.5159,9.39989 -36.2083,12.90518 -146.4497,54.04115 -188.1428,70.20443 l -24.8537,9.6351 -57.6621,58.20324 c -48.0998,48.55117 -58.1614,59.86964 -60.6727,68.25178 -3.7354,12.46751 -2.6124,17.02805 17.5977,71.46502 8.2268,22.15925 14.611,40.6631 14.1871,41.11965 -0.4238,0.45653 -26.4534,-15.83763 -57.8435,-36.20927 -137.2776,-89.09082 -136.3224,-88.50582 -146.3635,-89.63761 -7.1412,-0.80493 -16.3635,1.21763 -35.3052,7.74291 -28.8249,9.92996 -162.0386,59.89397 -229.86431,86.21446 -24.53052,9.51932 -76.59042,29.38083 -115.68868,44.1367 l -71.08777,26.82882 -59.62984,59.89618 c -32.79642,32.94291 -60.75411,62.85321 -62.12821,66.46737 -5.3101,13.96662 -2.70655,23.75507 28.26062,106.25004 49.03124,130.61681 132.74254,355.44569 148.06508,397.66809 12.14225,33.4589 20.70645,65.0983 20.70645,76.4976 0,3.7429 -6.0714,3.9018 -25.53892,0.6683 z"
     id="path4536"
     inkscape:connector-curvature="0"
     transform="scale(0.74999999)" />
  <path
     style="opacity:0;fill:#ff0000;fill-opacity:0;stroke-width:2.34741783"
     d="m 681.40052,1335.6726 c -27.58781,-4.5822 -58.73868,-29.4996 -74.53855,-59.623 -9.68976,-18.4742 -12.02952,-24.5246 -103.00661,-266.3692 C 397.28344,726.38012 405.44899,746.91469 395.75615,737.83462 l -8.28506,-7.76129 5.04747,-8.16697 c 11.45649,-18.537 49.14387,-69.98237 73.83639,-100.79082 84.70925,-105.69031 188.81564,-205.34073 303.96478,-290.95449 94.48971,-70.2534 219.32619,-143.68041 336.35697,-197.84026 245.852,-113.776188 517.4169,-155.353661 762.2346,-116.700613 69.9229,11.039785 160.6646,34.166008 217.5059,55.433079 l 13.6313,5.100101 -29.301,6.448666 c -45.7822,10.075899 -109.766,33.376757 -143.1508,52.130947 -72.8264,40.91085 -160.5857,116.30121 -221.2753,190.0883 -10.3536,12.58802 -19.5544,22.88732 -20.4463,22.88732 -0.8918,0 -7.2842,-15.05282 -14.2051,-33.45071 -14.3306,-38.09457 -22.1983,-48.65119 -39.7893,-53.38798 -9.8343,-2.64807 -11.9895,-2.19298 -44.5159,9.39989 -36.2083,12.90518 -146.4497,54.04115 -188.1428,70.20443 l -24.8537,9.6351 -57.6621,58.20324 c -48.0998,48.55117 -58.1614,59.86964 -60.6727,68.25178 -3.7354,12.46751 -2.6124,17.02805 17.5977,71.46502 8.2268,22.15925 14.611,40.6631 14.1871,41.11965 -0.4238,0.45653 -26.4534,-15.83763 -57.8435,-36.20927 -137.2776,-89.09082 -136.3224,-88.50582 -146.3635,-89.63761 -7.1412,-0.80493 -16.3635,1.21763 -35.3052,7.74291 -28.8249,9.92996 -162.0386,59.89397 -229.86431,86.21446 -24.53052,9.51932 -76.59042,29.38083 -115.68868,44.1367 l -71.08777,26.82882 -59.62984,59.89618 c -32.79642,32.94291 -60.75411,62.85321 -62.12821,66.46737 -5.3101,13.96662 -2.70655,23.75507 28.26062,106.25004 49.03124,130.61681 132.74254,355.44569 148.06508,397.66809 12.14225,33.4589 20.70645,65.0983 20.70645,76.4976 0,3.7429 -6.0714,3.9018 -25.53892,0.6683 z"
     id="path4538"
     inkscape:connector-curvature="0"
     transform="scale(0.74999999)" />
  <path
     style="opacity:0;fill:#ff0000;fill-opacity:0;stroke-width:2.34741783"
     d="m 681.40052,1335.6726 c -27.58781,-4.5822 -58.73868,-29.4996 -74.53855,-59.623 -9.68976,-18.4742 -12.02952,-24.5246 -103.00661,-266.3692 C 397.28344,726.38012 405.44899,746.91469 395.75615,737.83462 l -8.28506,-7.76129 5.04747,-8.16697 c 11.45649,-18.537 49.14387,-69.98237 73.83639,-100.79082 84.70925,-105.69031 188.81564,-205.34073 303.96478,-290.95449 94.48971,-70.2534 219.32619,-143.68041 336.35697,-197.84026 245.852,-113.776188 517.4169,-155.353661 762.2346,-116.700613 69.9229,11.039785 160.6646,34.166008 217.5059,55.433079 l 13.6313,5.100101 -29.301,6.448666 c -45.7822,10.075899 -109.766,33.376757 -143.1508,52.130947 -72.8264,40.91085 -160.5857,116.30121 -221.2753,190.0883 -10.3536,12.58802 -19.5544,22.88732 -20.4463,22.88732 -0.8918,0 -7.2842,-15.05282 -14.2051,-33.45071 -14.3306,-38.09457 -22.1983,-48.65119 -39.7893,-53.38798 -9.8343,-2.64807 -11.9895,-2.19298 -44.5159,9.39989 -36.2083,12.90518 -146.4497,54.04115 -188.1428,70.20443 l -24.8537,9.6351 -57.6621,58.20324 c -48.0998,48.55117 -58.1614,59.86964 -60.6727,68.25178 -3.7354,12.46751 -2.6124,17.02805 17.5977,71.46502 8.2268,22.15925 14.611,40.6631 14.1871,41.11965 -0.4238,0.45653 -26.4534,-15.83763 -57.8435,-36.20927 -137.2776,-89.09082 -136.3224,-88.50582 -146.3635,-89.63761 -7.1412,-0.80493 -16.3635,1.21763 -35.3052,7.74291 -28.8249,9.92996 -162.0386,59.89397 -229.86431,86.21446 -24.53052,9.51932 -76.59042,29.38083 -115.68868,44.1367 l -71.08777,26.82882 -59.62984,59.89618 c -32.79642,32.94291 -60.75411,62.85321 -62.12821,66.46737 -5.3101,13.96662 -2.70655,23.75507 28.26062,106.25004 49.03124,130.61681 132.74254,355.44569 148.06508,397.66809 12.14225,33.4589 20.70645,65.0983 20.70645,76.4976 0,3.7429 -6.0714,3.9018 -25.53892,0.6683 z"
     id="path4540"
     inkscape:connector-curvature="0"
     transform="scale(0.74999999)" />
  <path
     style="opacity:0;fill:#ff0000;fill-opacity:0;stroke-width:2.34741783"
     d="m 681.40052,1335.6726 c -27.58781,-4.5822 -58.73868,-29.4996 -74.53855,-59.623 -9.68976,-18.4742 -12.02952,-24.5246 -103.00661,-266.3692 C 397.28344,726.38012 405.44899,746.91469 395.75615,737.83462 l -8.28506,-7.76129 5.04747,-8.16697 c 11.45649,-18.537 49.14387,-69.98237 73.83639,-100.79082 84.70925,-105.69031 188.81564,-205.34073 303.96478,-290.95449 94.48971,-70.2534 219.32619,-143.68041 336.35697,-197.84026 245.852,-113.776188 517.4169,-155.353661 762.2346,-116.700613 69.9229,11.039785 160.6646,34.166008 217.5059,55.433079 l 13.6313,5.100101 -29.301,6.448666 c -45.7822,10.075899 -109.766,33.376757 -143.1508,52.130947 -72.8264,40.91085 -160.5857,116.30121 -221.2753,190.0883 -10.3536,12.58802 -19.5544,22.88732 -20.4463,22.88732 -0.8918,0 -7.2842,-15.05282 -14.2051,-33.45071 -14.3306,-38.09457 -22.1983,-48.65119 -39.7893,-53.38798 -9.8343,-2.64807 -11.9895,-2.19298 -44.5159,9.39989 -36.2083,12.90518 -146.4497,54.04115 -188.1428,70.20443 l -24.8537,9.6351 -57.6621,58.20324 c -48.0998,48.55117 -58.1614,59.86964 -60.6727,68.25178 -3.7354,12.46751 -2.6124,17.02805 17.5977,71.46502 8.2268,22.15925 14.611,40.6631 14.1871,41.11965 -0.4238,0.45653 -26.4534,-15.83763 -57.8435,-36.20927 -137.2776,-89.09082 -136.3224,-88.50582 -146.3635,-89.63761 -7.1412,-0.80493 -16.3635,1.21763 -35.3052,7.74291 -28.8249,9.92996 -162.0386,59.89397 -229.86431,86.21446 -24.53052,9.51932 -76.59042,29.38083 -115.68868,44.1367 l -71.08777,26.82882 -59.62984,59.89618 c -32.79642,32.94291 -60.75411,62.85321 -62.12821,66.46737 -5.3101,13.96662 -2.70655,23.75507 28.26062,106.25004 49.03124,130.61681 132.74254,355.44569 148.06508,397.66809 12.14225,33.4589 20.70645,65.0983 20.70645,76.4976 0,3.7429 -6.0714,3.9018 -25.53892,0.6683 z"
     id="path4542"
     inkscape:connector-curvature="0"
     transform="scale(0.74999999)" />
  <path
     style="opacity:0;fill:#ff0000;fill-opacity:0;stroke-width:2.34741783"
     d="m 681.40052,1335.6726 c -27.58781,-4.5822 -58.73868,-29.4996 -74.53855,-59.623 -9.68976,-18.4742 -12.02952,-24.5246 -103.00661,-266.3692 C 397.28344,726.38012 405.44899,746.91469 395.75615,737.83462 l -8.28506,-7.76129 5.04747,-8.16697 c 11.45649,-18.537 49.14387,-69.98237 73.83639,-100.79082 84.70925,-105.69031 188.81564,-205.34073 303.96478,-290.95449 94.48971,-70.2534 219.32619,-143.68041 336.35697,-197.84026 245.852,-113.776188 517.4169,-155.353661 762.2346,-116.700613 69.9229,11.039785 160.6646,34.166008 217.5059,55.433079 l 13.6313,5.100101 -29.301,6.448666 c -45.7822,10.075899 -109.766,33.376757 -143.1508,52.130947 -72.8264,40.91085 -160.5857,116.30121 -221.2753,190.0883 -10.3536,12.58802 -19.5544,22.88732 -20.4463,22.88732 -0.8918,0 -7.2842,-15.05282 -14.2051,-33.45071 -14.3306,-38.09457 -22.1983,-48.65119 -39.7893,-53.38798 -9.8343,-2.64807 -11.9895,-2.19298 -44.5159,9.39989 -36.2083,12.90518 -146.4497,54.04115 -188.1428,70.20443 l -24.8537,9.6351 -57.6621,58.20324 c -48.0998,48.55117 -58.1614,59.86964 -60.6727,68.25178 -3.7354,12.46751 -2.6124,17.02805 17.5977,71.46502 8.2268,22.15925 14.611,40.6631 14.1871,41.11965 -0.4238,0.45653 -26.4534,-15.83763 -57.8435,-36.20927 -137.2776,-89.09082 -136.3224,-88.50582 -146.3635,-89.63761 -7.1412,-0.80493 -16.3635,1.21763 -35.3052,7.74291 -28.8249,9.92996 -162.0386,59.89397 -229.86431,86.21446 -24.53052,9.51932 -76.59042,29.38083 -115.68868,44.1367 l -71.08777,26.82882 -59.62984,59.89618 c -32.79642,32.94291 -60.75411,62.85321 -62.12821,66.46737 -5.3101,13.96662 -2.70655,23.75507 28.26062,106.25004 49.03124,130.61681 132.74254,355.44569 148.06508,397.66809 12.14225,33.4589 20.70645,65.0983 20.70645,76.4976 0,3.7429 -6.0714,3.9018 -25.53892,0.6683 z"
     id="path4544"
     inkscape:connector-curvature="0"
     transform="scale(0.74999999)" />
  <path
     style="opacity:0;fill:#ff0000;fill-opacity:0;stroke-width:2.34741783"
     d="m 681.40052,1335.6726 c -27.58781,-4.5822 -58.73868,-29.4996 -74.53855,-59.623 -9.68976,-18.4742 -12.02952,-24.5246 -103.00661,-266.3692 C 397.28344,726.38012 405.44899,746.91469 395.75615,737.83462 l -8.28506,-7.76129 5.04747,-8.16697 c 11.45649,-18.537 49.14387,-69.98237 73.83639,-100.79082 84.70925,-105.69031 188.81564,-205.34073 303.96478,-290.95449 94.48971,-70.2534 219.32619,-143.68041 336.35697,-197.84026 245.852,-113.776188 517.4169,-155.353661 762.2346,-116.700613 69.9229,11.039785 160.6646,34.166008 217.5059,55.433079 l 13.6313,5.100101 -29.301,6.448666 c -45.7822,10.075899 -109.766,33.376757 -143.1508,52.130947 -72.8264,40.91085 -160.5857,116.30121 -221.2753,190.0883 -10.3536,12.58802 -19.5544,22.88732 -20.4463,22.88732 -0.8918,0 -7.2842,-15.05282 -14.2051,-33.45071 -14.3306,-38.09457 -22.1983,-48.65119 -39.7893,-53.38798 -9.8343,-2.64807 -11.9895,-2.19298 -44.5159,9.39989 -36.2083,12.90518 -146.4497,54.04115 -188.1428,70.20443 l -24.8537,9.6351 -57.6621,58.20324 c -48.0998,48.55117 -58.1614,59.86964 -60.6727,68.25178 -3.7354,12.46751 -2.6124,17.02805 17.5977,71.46502 8.2268,22.15925 14.611,40.6631 14.1871,41.11965 -0.4238,0.45653 -26.4534,-15.83763 -57.8435,-36.20927 -137.2776,-89.09082 -136.3224,-88.50582 -146.3635,-89.63761 -7.1412,-0.80493 -16.3635,1.21763 -35.3052,7.74291 -28.8249,9.92996 -162.0386,59.89397 -229.86431,86.21446 -24.53052,9.51932 -76.59042,29.38083 -115.68868,44.1367 l -71.08777,26.82882 -59.62984,59.89618 c -32.79642,32.94291 -60.75411,62.85321 -62.12821,66.46737 -5.3101,13.96662 -2.70655,23.75507 28.26062,106.25004 49.03124,130.61681 132.74254,355.44569 148.06508,397.66809 12.14225,33.4589 20.70645,65.0983 20.70645,76.4976 0,3.7429 -6.0714,3.9018 -25.53892,0.6683 z"
     id="path4546"
     inkscape:connector-curvature="0"
     transform="scale(0.74999999)" />
  <path
     style="opacity:0;fill:#ff0000;fill-opacity:0;stroke-width:2.34741783"
     d="m 681.40052,1335.6726 c -27.58781,-4.5822 -58.73868,-29.4996 -74.53855,-59.623 -9.68976,-18.4742 -12.02952,-24.5246 -103.00661,-266.3692 C 397.28344,726.38012 405.44899,746.91469 395.75615,737.83462 l -8.28506,-7.76129 5.04747,-8.16697 c 11.45649,-18.537 49.14387,-69.98237 73.83639,-100.79082 84.70925,-105.69031 188.81564,-205.34073 303.96478,-290.95449 94.48971,-70.2534 219.32619,-143.68041 336.35697,-197.84026 245.852,-113.776188 517.4169,-155.353661 762.2346,-116.700613 69.9229,11.039785 160.6646,34.166008 217.5059,55.433079 l 13.6313,5.100101 -29.301,6.448666 c -45.7822,10.075899 -109.766,33.376757 -143.1508,52.130947 -72.8264,40.91085 -160.5857,116.30121 -221.2753,190.0883 -10.3536,12.58802 -19.5544,22.88732 -20.4463,22.88732 -0.8918,0 -7.2842,-15.05282 -14.2051,-33.45071 -14.3306,-38.09457 -22.1983,-48.65119 -39.7893,-53.38798 -9.8343,-2.64807 -11.9895,-2.19298 -44.5159,9.39989 -36.2083,12.90518 -146.4497,54.04115 -188.1428,70.20443 l -24.8537,9.6351 -57.6621,58.20324 c -48.0998,48.55117 -58.1614,59.86964 -60.6727,68.25178 -3.7354,12.46751 -2.6124,17.02805 17.5977,71.46502 8.2268,22.15925 14.611,40.6631 14.1871,41.11965 -0.4238,0.45653 -26.4534,-15.83763 -57.8435,-36.20927 -137.2776,-89.09082 -136.3224,-88.50582 -146.3635,-89.63761 -7.1412,-0.80493 -16.3635,1.21763 -35.3052,7.74291 -28.8249,9.92996 -162.0386,59.89397 -229.86431,86.21446 -24.53052,9.51932 -76.59042,29.38083 -115.68868,44.1367 l -71.08777,26.82882 -59.62984,59.89618 c -32.79642,32.94291 -60.75411,62.85321 -62.12821,66.46737 -5.3101,13.96662 -2.70655,23.75507 28.26062,106.25004 49.03124,130.61681 132.74254,355.44569 148.06508,397.66809 12.14225,33.4589 20.70645,65.0983 20.70645,76.4976 0,3.7429 -6.0714,3.9018 -25.53892,0.6683 z"
     id="path4548"
     inkscape:connector-curvature="0"
     transform="scale(0.74999999)" />
  <path
     style="opacity:0;fill:#ff0000;fill-opacity:0;stroke-width:2.34741783"
     d="m 681.40052,1335.6726 c -27.58781,-4.5822 -58.73868,-29.4996 -74.53855,-59.623 -9.68976,-18.4742 -12.02952,-24.5246 -103.00661,-266.3692 C 397.28344,726.38012 405.44899,746.91469 395.75615,737.83462 l -8.28506,-7.76129 5.04747,-8.16697 c 11.45649,-18.537 49.14387,-69.98237 73.83639,-100.79082 84.70925,-105.69031 188.81564,-205.34073 303.96478,-290.95449 95.11,-70.7146 219.02535,-143.51311 338.27057,-198.72915 l 39.8774,-18.4651 412.4518,0.0555 412.4519,0.0555 -19.9531,8.99688 c -74.958,33.7987 -177.0095,117.53343 -247.0969,202.74655 -10.3536,12.58802 -19.5544,22.88732 -20.4463,22.88732 -0.8918,0 -7.2842,-15.05282 -14.2051,-33.45071 -14.3306,-38.09456 -22.1983,-48.6512 -39.7893,-53.38797 -9.8343,-2.64809 -11.9895,-2.193 -44.5159,9.39988 -36.2083,12.90517 -146.4497,54.04114 -188.1428,70.20444 l -24.8537,9.63509 -57.6621,58.20324 c -48.0998,48.55117 -58.1614,59.86964 -60.6727,68.25178 -3.7354,12.46751 -2.6124,17.02805 17.5977,71.46502 8.2268,22.15925 14.611,40.6631 14.1871,41.11965 -0.4238,0.45653 -26.4534,-15.83763 -57.8435,-36.20927 -137.2776,-89.09082 -136.3224,-88.50582 -146.3635,-89.63761 -7.1412,-0.80493 -16.3635,1.21763 -35.3052,7.74291 -28.8249,9.92996 -162.0386,59.89397 -229.86431,86.21446 -24.53052,9.51932 -76.59042,29.38083 -115.68868,44.1367 l -71.08777,26.82882 -59.62984,59.89618 c -32.79642,32.94291 -60.75411,62.85321 -62.12821,66.46737 -5.3101,13.96662 -2.70655,23.75507 28.26062,106.25004 49.03124,130.61681 132.74254,355.44573 148.06508,397.66813 12.14225,33.4589 20.70645,65.0983 20.70645,76.4976 0,3.7429 -6.0714,3.9018 -25.53892,0.6683 z"
     id="path4550"
     inkscape:connector-curvature="0"
     transform="scale(0.74999999)" />
  <path
     style="opacity:0;fill:#ff0000;fill-opacity:0;stroke-width:2.34741783"
     d="m 892.38545,1866.2806 c -126.23352,-7.4338 -240.95577,-36.7694 -341.97276,-87.4458 l -25.31138,-12.6977 51.59982,-1.2138 c 51.74067,-1.2172 66.28516,-2.9874 111.45897,-13.5659 58.62962,-13.7296 125.76364,-42.9536 177.6435,-77.3299 31.41357,-20.8151 65.97641,-51.5251 133.78314,-118.87 23.99176,-23.8283 43.81956,-43.0164 44.06166,-42.6401 0.2422,0.3763 4.0711,10.5848 8.5089,22.6857 15.3324,41.8088 21.8351,48.5609 46.3945,48.1746 13.7619,-0.2165 23.3632,-3.1128 79.0449,-23.8446 70.0969,-26.099 150.2668,-56.6052 163.4564,-62.1985 9.4484,-4.0067 115.9814,-108.6809 124.0048,-121.8412 8.3283,-13.6603 6.5065,-23.0354 -16.0979,-82.8421 -11.4897,-30.3993 -20.3636,-55.2713 -19.7197,-55.2713 0.6438,0 43.055,27.672 94.2471,61.4933 106.1119,70.1055 121.1948,79.3517 129.4427,79.3517 7.2965,0 50.5581,-14.8176 139.9197,-47.924 l 68.3048,-25.3053 59.6295,-57.9321 59.6295,-57.9321 22.3005,4.2964 c 29.1745,5.6208 110.366,8.0623 139.7934,4.2037 29.0226,-3.8054 60.6646,-10.5614 88.5797,-18.9127 12.9755,-3.8819 23.9628,-6.6869 24.4162,-6.2335 1.2247,1.2246 -36.1475,49.8725 -62.1898,80.9534 -156.7428,187.0692 -338.4853,332.3968 -544.9615,435.77 -257.5835,128.9603 -521.8457,190.859 -755.96665,177.0718 z"
     id="path4552"
     inkscape:connector-curvature="0"
     transform="scale(0.74999999)" />
  <path
     style="opacity:0;fill:#ff0000;fill-opacity:0;stroke-width:2.34741783"
     d="m 892.604,1866.2736 c -91.8381,-5.2492 -182.62129,-23.4509 -260.78193,-52.2858 -29.6778,-10.9487 -83.53382,-34.9491 -97.42135,-43.415 l -8.21245,-5.0063 41.07981,-0.052 c 83.66055,-0.1054 157.47737,-17.6844 235.9155,-56.1816 68.53718,-33.6378 93.11211,-52.6458 184.56612,-142.7565 l 55.4581,-54.6435 10.9085,27.6296 c 5.9996,15.1962 12.2241,29.3443 13.8322,31.4403 5.757,7.5037 19.1478,13.7771 29.4266,13.786 11.8529,0.01 86.0881,-26.5266 241.7466,-86.4171 7.8592,-3.0239 23.375,-17.2664 69.5389,-63.8321 53.833,-54.3016 59.5768,-60.8529 61.0628,-69.6486 2.0191,-11.9507 1.5383,-13.6064 -21.9651,-75.6483 -10.4699,-27.6373 -18.6629,-50.623 -18.2065,-51.0794 0.4563,-0.4563 44.5693,28.0406 98.0289,63.3266 110.803,73.1354 116.6587,76.746 124.4007,76.7046 6.6343,-0.035 22.7531,-4.9968 63.174,-19.4449 45.1333,-16.1325 139.1076,-51.1411 144.3662,-53.7812 2.5822,-1.2964 30.5751,-28.045 62.2066,-59.4413 l 57.5117,-57.0841 23.4742,4.9877 c 20.2543,4.3036 31.5237,5.0023 82.1596,5.0937 71.2137,0.1287 86.3851,-2.236 168.8373,-26.315 5.4702,-1.5974 3.1587,1.6691 -36.1365,51.0666 -172.9554,217.4202 -386.3642,384.9617 -631.8888,496.0789 -241.4833,109.2882 -477.2096,159.2571 -693.0817,146.9185 z"
     id="path4554"
     inkscape:connector-curvature="0"
     transform="scale(0.74999999)" />
  <path
     style="opacity:0;fill:#ff0000;fill-opacity:0;stroke-width:3.31975007"
     d="m 890.22981,1865.8631 c -114.8326,-5.8931 -250.87904,-41.029 -340.9306,-88.0501 l -20.92216,-10.9247 54.77587,-2.0252 c 30.12674,-1.1138 67.41157,-4.5917 82.85519,-7.7285 73.27121,-14.8824 164.3768,-54.841 219.31176,-96.1894 15.48152,-11.6526 57.42769,-49.6394 93.21377,-84.4151 l 65.06556,-63.2285 10.4106,27.4069 c 11.6358,30.6325 20.7517,41.32 37.5719,44.0496 11.3329,1.839 87.6164,-24.0556 213.6169,-72.5131 l 43.1567,-16.5972 60.5855,-60.6624 c 60.131,-60.2073 60.5854,-60.7715 60.5854,-75.2173 0,-9.6162 -6.0454,-30.314 -17.8162,-60.998 -9.799,-25.5437 -18.8597,-49.7941 -20.1351,-53.8899 -1.7352,-5.5728 24.3554,10.0915 103.6768,62.2453 86.3105,56.7492 108.1219,69.6922 117.4449,69.6922 13.0098,0 38.2027,-8.2487 137.1855,-44.9173 l 69.7148,-25.8261 59.6951,-57.9271 59.6952,-57.927 13.3393,1.9843 c 7.3367,1.0914 23.0496,3.4577 34.9177,5.2586 28.7525,4.3629 89.6061,4.2659 121.7606,-0.1941 14.2826,-1.9811 42.9932,-7.987 63.8014,-13.3465 20.8082,-5.3594 38.3726,-9.2048 39.0321,-8.5453 1.7326,1.7325 -28.3588,41.1412 -65.0413,85.1802 -42.6717,51.2292 -136.8185,147.0234 -189.4041,192.7182 -150.4605,130.7443 -304.4467,224.6585 -490.2995,299.0273 -216.0319,86.445 -418.5937,123.7352 -616.86359,113.5602 z"
     id="path4558"
     inkscape:connector-curvature="0"
     transform="scale(0.74999999)" />
</svg>
